<svg width="40" height="44" viewBox="0 0 40 44" fill="none" xmlns="http://www.w3.org/2000/svg">
<path fill-rule="evenodd" clip-rule="evenodd" d="M5.40499 1H34.5963C37.024 1 39.0013 3.0521 39 5.57474V32.8166C39 35.3393 37.024 37.3914 34.595 37.3914H5.40499C2.97595 37.3914 1 35.3393 1 32.8166V5.57474C1 3.0521 2.97595 1 5.40499 1ZM2.25857 24.39H37.7414V14.0027H2.25857V24.39ZM34.5963 36.0843H5.40499C3.67069 36.0843 2.25857 34.6191 2.25857 32.8166V25.697H37.7414V32.8166C37.7427 34.6191 36.3306 36.0843 34.5963 36.0843ZM2.25857 12.6956H37.7414V5.57474C37.7414 3.7736 36.3293 2.30707 34.595 2.30707H5.40499C3.67069 2.30707 2.25857 3.7736 2.25857 5.57474V12.6956Z" fill="#CBC9C6"/>
<path d="M39 5.57474L38.8 5.57464V5.57474H39ZM37.7414 24.39V24.59H37.9414V24.39H37.7414ZM2.25857 24.39H2.05857V24.59H2.25857V24.39ZM37.7414 14.0027H37.9414V13.8027H37.7414V14.0027ZM2.25857 14.0027V13.8027H2.05857V14.0027H2.25857ZM2.25857 25.697V25.497H2.05857V25.697H2.25857ZM37.7414 25.697H37.9414V25.497H37.7414V25.697ZM37.7414 32.8166H37.5414V32.8168L37.7414 32.8166ZM37.7414 12.6956V12.8956H37.9414V12.6956H37.7414ZM2.25857 12.6956H2.05857V12.8956H2.25857V12.6956ZM34.5963 0.8H5.40499V1.2H34.5963V0.8ZM39.2 5.57484C39.2013 2.9488 37.1415 0.8 34.5963 0.8V1.2C36.9066 1.2 38.8012 3.15539 38.8 5.57464L39.2 5.57484ZM39.2 32.8166V5.57474H38.8V32.8166H39.2ZM34.595 37.5914C37.1416 37.5914 39.2 35.4425 39.2 32.8166H38.8C38.8 35.236 36.9065 37.1914 34.595 37.1914V37.5914ZM5.40499 37.5914H34.595V37.1914H5.40499V37.5914ZM0.8 32.8166C0.8 35.4425 2.85844 37.5914 5.40499 37.5914V37.1914C3.09347 37.1914 1.2 35.236 1.2 32.8166H0.8ZM0.8 5.57474V32.8166H1.2V5.57474H0.8ZM5.40499 0.8C2.85844 0.8 0.8 2.94883 0.8 5.57474H1.2C1.2 3.15536 3.09347 1.2 5.40499 1.2V0.8ZM37.7414 24.19H2.25857V24.59H37.7414V24.19ZM37.5414 14.0027V24.39H37.9414V14.0027H37.5414ZM2.25857 14.2027H37.7414V13.8027H2.25857V14.2027ZM2.45857 24.39V14.0027H2.05857V24.39H2.45857ZM5.40499 36.2843H34.5963V35.8843H5.40499V36.2843ZM2.05857 32.8166C2.05857 34.7224 3.55322 36.2843 5.40499 36.2843V35.8843C3.78815 35.8843 2.45857 34.5158 2.45857 32.8166H2.05857ZM2.05857 25.697V32.8166H2.45857V25.697H2.05857ZM37.7414 25.497H2.25857V25.897H37.7414V25.497ZM37.9414 32.8166V25.697H37.5414V32.8166H37.9414ZM34.5963 36.2843C36.448 36.2843 37.9428 34.7224 37.9414 32.8165L37.5414 32.8168C37.5426 34.5158 36.2131 35.8843 34.5963 35.8843V36.2843ZM37.7414 12.4956H2.25857V12.8956H37.7414V12.4956ZM37.5414 5.57474V12.6956H37.9414V5.57474H37.5414ZM34.595 2.50707C36.2118 2.50707 37.5414 3.87686 37.5414 5.57474H37.9414C37.9414 3.67033 36.4468 2.10707 34.595 2.10707V2.50707ZM5.40499 2.50707H34.595V2.10707H5.40499V2.50707ZM2.45857 5.57474C2.45857 3.87686 3.7882 2.50707 5.40499 2.50707V2.10707C3.55317 2.10707 2.05857 3.67034 2.05857 5.57474H2.45857ZM2.45857 12.6956V5.57474H2.05857V12.6956H2.45857Z" fill="#CBC9C6"/>
<path d="M23.5561 4.13953H16.4464C16.0991 4.13953 15.8171 4.43231 15.8171 4.79306C15.8171 5.15381 16.0991 5.44659 16.4464 5.44659H23.5561C23.9022 5.44659 24.1854 5.15381 24.1854 4.79306C24.1854 4.43231 23.9035 4.13953 23.5561 4.13953Z" fill="#CBC9C6" stroke="#CBC9C6" stroke-width="0.4"/>
<path d="M16.4464 17.1423H23.5561C23.9022 17.1423 24.1854 16.8495 24.1854 16.4887C24.1854 16.128 23.9022 15.8352 23.5561 15.8352H16.4464C16.0991 15.8352 15.8171 16.128 15.8171 16.4887C15.8171 16.8495 16.0965 17.1423 16.4464 17.1423Z" fill="#CBC9C6" stroke="#CBC9C6" stroke-width="0.4"/>
<path d="M23.5561 27.5295H16.4464C16.0991 27.5295 15.8171 27.8236 15.8171 28.1831C15.8171 28.5425 16.0991 28.8366 16.4464 28.8366H23.5561C23.9022 28.8366 24.1854 28.5425 24.1854 28.1831C24.1854 27.8236 23.9035 27.5295 23.5561 27.5295Z" fill="#CBC9C6" stroke="#CBC9C6" stroke-width="0.4"/>
<path fill-rule="evenodd" clip-rule="evenodd" d="M9.2022 40.7766C9.2022 42.0013 8.24317 42.9999 7.06389 42.9999C5.88335 42.9999 4.92432 42.0026 4.92432 40.7766C4.92432 39.5545 5.88335 38.5559 7.06389 38.5559C8.24191 38.5559 9.2022 39.5532 9.2022 40.7766ZM7.94363 40.7792C7.94363 40.2747 7.54969 39.8656 7.06389 39.8656C6.57808 39.8656 6.18289 40.2734 6.18289 40.7792C6.18289 41.2825 6.57808 41.6929 7.06389 41.6929C7.54969 41.6929 7.94363 41.2825 7.94363 40.7792Z" fill="#CBC9C6"/>
<path d="M7.06389 43.1999C8.36098 43.1999 9.40219 42.1043 9.40219 40.7766H9.0022C9.0022 41.8984 8.12535 42.7999 7.06389 42.7999V43.1999ZM4.72432 40.7766C4.72432 42.1058 5.76568 43.1999 7.06389 43.1999V42.7999C6.00101 42.7999 5.12432 41.8995 5.12432 40.7766H4.72432ZM7.06389 38.3559C5.76575 38.3559 4.72432 39.4513 4.72432 40.7766H5.12432C5.12432 39.6577 6.00094 38.7559 7.06389 38.7559V38.3559ZM9.40219 40.7766C9.40219 39.4499 8.35942 38.3559 7.06389 38.3559V38.7559C8.12439 38.7559 9.0022 39.6565 9.0022 40.7766H9.40219ZM7.06389 40.0656C7.43218 40.0656 7.74363 40.378 7.74363 40.7792H8.14363C8.14363 40.1714 7.66721 39.6656 7.06389 39.6656V40.0656ZM6.38289 40.7792C6.38289 40.3772 6.69505 40.0656 7.06389 40.0656V39.6656C6.46111 39.6656 5.98289 40.1696 5.98289 40.7792H6.38289ZM7.06389 41.4929C6.69541 41.4929 6.38289 41.179 6.38289 40.7792H5.98289C5.98289 41.3859 6.46074 41.8929 7.06389 41.8929V41.4929ZM7.74363 40.7792C7.74363 41.1794 7.43199 41.4929 7.06389 41.4929V41.8929C7.66739 41.8929 8.14363 41.3855 8.14363 40.7792H7.74363Z" fill="#CBC9C6"/>
<path fill-rule="evenodd" clip-rule="evenodd" d="M32.9401 38.5586C34.1181 38.5586 35.0771 39.5533 35.0771 40.7793C35.0771 42.0053 34.1181 43 32.9401 43C31.7608 43 30.8018 42.004 30.8018 40.7793C30.8018 39.5546 31.7595 38.5586 32.9401 38.5586ZM32.9363 39.8657C32.4505 39.8657 32.0566 40.2735 32.0566 40.7793C32.0566 41.2825 32.4517 41.6929 32.9363 41.6929C33.4221 41.6929 33.816 41.2825 33.816 40.7793C33.816 40.2748 33.4234 39.8657 32.9363 39.8657Z" fill="#CBC9C6"/>
<path d="M35.2771 40.7793C35.2771 39.45 34.2356 38.3586 32.9401 38.3586V38.7586C34.0006 38.7586 34.8771 39.6565 34.8771 40.7793H35.2771ZM32.9401 43.2C34.2356 43.2 35.2771 42.1086 35.2771 40.7793H34.8771C34.8771 41.9021 34.0006 42.8 32.9401 42.8V43.2ZM30.6018 40.7793C30.6018 42.1073 31.6433 43.2 32.9401 43.2V42.8C31.8783 42.8 31.0018 41.9008 31.0018 40.7793H30.6018ZM32.9401 38.3586C31.6419 38.3586 30.6018 39.4514 30.6018 40.7793H31.0018C31.0018 39.6578 31.8771 38.7586 32.9401 38.7586V38.3586ZM32.2566 40.7793C32.2566 40.3769 32.5678 40.0657 32.9363 40.0657V39.6657C32.3332 39.6657 31.8566 40.17 31.8566 40.7793H32.2566ZM32.9363 41.4929C32.5693 41.4929 32.2566 41.1793 32.2566 40.7793H31.8566C31.8566 41.3858 32.3342 41.8929 32.9363 41.8929V41.4929ZM33.616 40.7793C33.616 41.1794 33.3044 41.4929 32.9363 41.4929V41.8929C33.5398 41.8929 34.016 41.3856 34.016 40.7793H33.616ZM32.9363 40.0657C33.3057 40.0657 33.616 40.3778 33.616 40.7793H34.016C34.016 40.1717 33.5411 39.6657 32.9363 39.6657V40.0657Z" fill="#CBC9C6"/>
</svg>
