<svg width="36" height="44" viewBox="0 0 36 44" fill="none" xmlns="http://www.w3.org/2000/svg">
<path fill-rule="evenodd" clip-rule="evenodd" d="M28.9072 22.7262H33.8029C34.463 22.7262 35.0001 23.2039 35 23.7915V27.6009C35 28.1883 34.463 28.6661 33.8028 28.6661H32.2108V30.0358C32.2108 30.8399 31.4754 31.4942 30.5717 31.4942H28.9307V42.2115C28.9307 42.6462 28.5333 43 28.0446 43H26.8976C26.409 43 26.0114 42.6463 26.0114 42.2115V31.4942H9.22715V42.2114C9.22715 42.6461 8.82972 42.9999 8.34107 42.9999H7.19414C6.70549 42.9999 6.30795 42.6462 6.30795 42.2114V31.4941H5.42852C4.52482 31.4941 3.78939 30.8398 3.78939 30.0357V28.666H2.19719C1.53707 28.666 1 28.1882 1 27.6008V23.7914C1 23.2039 1.53707 22.7262 2.19719 22.7262H6.33405L7.79508 2.7515C7.86696 1.76942 8.78978 1 9.89596 1H25.4778C26.5904 1 27.5136 1.77421 27.5795 2.7626L28.9072 22.7262ZM9.89596 1.73337C9.22291 1.73337 8.66123 2.20144 8.61762 2.79916L7.1598 22.7262H28.0814L26.7566 2.80598C26.7168 2.2045 26.155 1.73337 25.4778 1.73337H9.89596ZM8.403 42.2115C8.403 42.242 8.3753 42.2667 8.34107 42.2667H7.19414C7.15991 42.2667 7.1321 42.242 7.1321 42.2115V31.4942H8.403V42.2115ZM28.0446 42.2667C28.0788 42.2667 28.1065 42.242 28.1065 42.2115V31.4942H26.8357V42.2115C26.8357 42.242 26.8634 42.2667 26.8976 42.2667H28.0446ZM31.3866 30.0357C31.3866 30.4356 31.0209 30.7609 30.5717 30.7609H28.9307H26.0114H9.22715H6.30795H5.42852C4.97925 30.7609 4.61353 30.4356 4.61353 30.0357V28.666H31.3866V30.0357ZM33.8028 27.9327C34.0085 27.9327 34.176 27.7838 34.176 27.6008H34.1761V23.7914C34.1761 23.6083 34.0086 23.4595 33.8029 23.4595H28.9558H6.28048H2.19719C1.99161 23.4595 1.82415 23.6083 1.82415 23.7914V27.6008C1.82415 27.7838 1.99161 27.9327 2.19719 27.9327H3.78939H32.2108H33.8028Z" fill="#CBC9C6"/>
<path d="M28.9072 22.7262L28.508 22.7527L28.5329 23.1262H28.9072V22.7262ZM35 23.7915L34.6 23.7914V23.7915H35ZM32.2108 28.6661V28.2661H31.8108V28.6661H32.2108ZM28.9307 31.4942V31.0942H28.5307V31.4942H28.9307ZM26.0114 31.4942H26.4114V31.0942H26.0114V31.4942ZM9.22715 31.4942V31.0942H8.82715V31.4942H9.22715ZM6.30795 31.4941H6.70795V31.0941H6.30795V31.4941ZM3.78939 28.666H4.18939V28.266H3.78939V28.666ZM6.33405 22.7262V23.1262H6.70586L6.73299 22.7554L6.33405 22.7262ZM7.79508 2.7515L7.39614 2.7223L7.39614 2.72232L7.79508 2.7515ZM27.5795 2.7626L27.9786 2.73606L27.9786 2.73598L27.5795 2.7626ZM8.61762 2.79916L9.01655 2.82835L9.01656 2.82827L8.61762 2.79916ZM7.1598 22.7262L6.76087 22.697L6.72947 23.1262H7.1598V22.7262ZM28.0814 22.7262V23.1262H28.5089L28.4805 22.6996L28.0814 22.7262ZM26.7566 2.80598L26.3575 2.83242L26.3575 2.83253L26.7566 2.80598ZM7.1321 31.4942V31.0942H6.7321V31.4942H7.1321ZM8.403 31.4942H8.803V31.0942H8.403V31.4942ZM28.1065 31.4942H28.5065V31.0942H28.1065V31.4942ZM26.8357 31.4942V31.0942H26.4357V31.4942H26.8357ZM4.61353 28.666V28.266H4.21353V28.666H4.61353ZM31.3866 28.666H31.7866V28.266H31.3866V28.666ZM34.176 27.6008V27.2008H33.776V27.6008H34.176ZM34.1761 27.6008V28.0008H34.5761V27.6008H34.1761ZM33.8029 22.3262H28.9072V23.1262H33.8029V22.3262ZM35.4 23.7915C35.4002 22.9404 34.6387 22.3262 33.8029 22.3262V23.1262C34.2874 23.1262 34.6001 23.4675 34.6 23.7914L35.4 23.7915ZM35.4 27.6009V23.7915H34.6V27.6009H35.4ZM33.8028 29.0661C34.6387 29.0661 35.4 28.4519 35.4 27.6009H34.6C34.6 27.9248 34.2873 28.2661 33.8028 28.2661V29.0661ZM32.2108 29.0661H33.8028V28.2661H32.2108V29.0661ZM32.6108 30.0358V28.6661H31.8108V30.0358H32.6108ZM30.5717 31.8942C31.6511 31.8942 32.6108 31.1035 32.6108 30.0358H31.8108C31.8108 30.5763 31.2997 31.0942 30.5717 31.0942V31.8942ZM28.9307 31.8942H30.5717V31.0942H28.9307V31.8942ZM29.3307 42.2115V31.4942H28.5307V42.2115H29.3307ZM28.0446 43.4C28.7091 43.4 29.3307 42.9097 29.3307 42.2115H28.5307C28.5307 42.3827 28.3576 42.6 28.0446 42.6V43.4ZM26.8976 43.4H28.0446V42.6H26.8976V43.4ZM25.6114 42.2115C25.6114 42.9099 26.2333 43.4 26.8976 43.4V42.6C26.5847 42.6 26.4114 42.3827 26.4114 42.2115H25.6114ZM25.6114 31.4942V42.2115H26.4114V31.4942H25.6114ZM9.22715 31.8942H26.0114V31.0942H9.22715V31.8942ZM9.62714 42.2114V31.4942H8.82715V42.2114H9.62714ZM8.34107 43.3999C9.00553 43.3999 9.62714 42.9096 9.62714 42.2114H8.82715C8.82715 42.3826 8.65392 42.5999 8.34107 42.5999V43.3999ZM7.19414 43.3999H8.34107V42.5999H7.19414V43.3999ZM5.90795 42.2114C5.90795 42.9098 6.52979 43.3999 7.19414 43.3999V42.5999C6.88119 42.5999 6.70795 42.3826 6.70795 42.2114H5.90795ZM5.90795 31.4941V42.2114H6.70795V31.4941H5.90795ZM5.42852 31.8941H6.30795V31.0941H5.42852V31.8941ZM3.38939 30.0357C3.38939 31.1034 4.34915 31.8941 5.42852 31.8941V31.0941C4.7005 31.0941 4.18939 30.5762 4.18939 30.0357H3.38939ZM3.38939 28.666V30.0357H4.18939V28.666H3.38939ZM2.19719 29.066H3.78939V28.266H2.19719V29.066ZM0.6 27.6008C0.6 28.4518 1.3614 29.066 2.19719 29.066V28.266C1.71274 28.266 1.4 27.9247 1.4 27.6008H0.6ZM0.6 23.7914V27.6008H1.4V23.7914H0.6ZM2.19719 22.3262C1.3614 22.3262 0.6 22.9403 0.6 23.7914H1.4C1.4 23.4675 1.71274 23.1262 2.19719 23.1262V22.3262ZM6.33405 22.3262H2.19719V23.1262H6.33405V22.3262ZM7.39614 2.72232L5.93512 22.697L6.73299 22.7554L8.19401 2.78068L7.39614 2.72232ZM9.89596 0.6C8.62055 0.6 7.48611 1.49321 7.39614 2.7223L8.19401 2.7807C8.24781 2.04564 8.959 1.4 9.89596 1.4V0.6ZM25.4778 0.6H9.89596V1.4H25.4778V0.6ZM27.9786 2.73598C27.8961 1.49913 26.7603 0.6 25.4778 0.6V1.4C26.4205 1.4 27.131 2.0493 27.1804 2.78922L27.9786 2.73598ZM29.3063 22.6996L27.9786 2.73606L27.1804 2.78914L28.508 22.7527L29.3063 22.6996ZM9.01656 2.82827C9.04214 2.47773 9.39202 2.13337 9.89596 2.13337V1.33337C9.0538 1.33337 8.28033 1.92515 8.21868 2.77005L9.01656 2.82827ZM7.55873 22.7554L9.01655 2.82835L8.21869 2.76998L6.76087 22.697L7.55873 22.7554ZM28.0814 22.3262H7.1598V23.1262H28.0814V22.3262ZM26.3575 2.83253L27.6823 22.7527L28.4805 22.6996L27.1557 2.77944L26.3575 2.83253ZM25.4778 2.13337C25.9852 2.13337 26.3341 2.47962 26.3575 2.83242L27.1557 2.77955C27.0994 1.92938 26.3247 1.33337 25.4778 1.33337V2.13337ZM9.89596 2.13337H25.4778V1.33337H9.89596V2.13337ZM8.34107 42.6667C8.55199 42.6667 8.803 42.5047 8.803 42.2115H8.003C8.003 41.9793 8.1986 41.8667 8.34107 41.8667V42.6667ZM7.19414 42.6667H8.34107V41.8667H7.19414V42.6667ZM6.7321 42.2115C6.7321 42.5056 6.98423 42.6667 7.19414 42.6667V41.8667C7.3356 41.8667 7.5321 41.9784 7.5321 42.2115H6.7321ZM6.7321 31.4942V42.2115H7.5321V31.4942H6.7321ZM8.403 31.0942H7.1321V31.8942H8.403V31.0942ZM8.803 42.2115V31.4942H8.003V42.2115H8.803ZM27.7065 42.2115C27.7065 41.9793 27.9021 41.8667 28.0446 41.8667V42.6667C28.2555 42.6667 28.5065 42.5047 28.5065 42.2115H27.7065ZM27.7065 31.4942V42.2115H28.5065V31.4942H27.7065ZM26.8357 31.8942H28.1065V31.0942H26.8357V31.8942ZM27.2357 42.2115V31.4942H26.4357V42.2115H27.2357ZM26.8976 41.8667C27.0401 41.8667 27.2357 41.9793 27.2357 42.2115H26.4357C26.4357 42.5047 26.6867 42.6667 26.8976 42.6667V41.8667ZM28.0446 41.8667H26.8976V42.6667H28.0446V41.8667ZM30.5717 31.1609C31.1966 31.1609 31.7866 30.6992 31.7866 30.0357H30.9866C30.9866 30.1721 30.8451 30.3609 30.5717 30.3609V31.1609ZM28.9307 31.1609H30.5717V30.3609H28.9307V31.1609ZM26.0114 31.1609H28.9307V30.3609H26.0114V31.1609ZM9.22715 31.1609H26.0114V30.3609H9.22715V31.1609ZM6.30795 31.1609H9.22715V30.3609H6.30795V31.1609ZM5.42852 31.1609H6.30795V30.3609H5.42852V31.1609ZM4.21353 30.0357C4.21353 30.6992 4.80355 31.1609 5.42852 31.1609V30.3609C5.15495 30.3609 5.01353 30.172 5.01353 30.0357H4.21353ZM4.21353 28.666V30.0357H5.01353V28.666H4.21353ZM31.3866 28.266H4.61353V29.066H31.3866V28.266ZM31.7866 30.0357V28.666H30.9866V30.0357H31.7866ZM33.776 27.6008C33.776 27.5652 33.7931 27.5433 33.8007 27.5365C33.8076 27.5303 33.8094 27.5327 33.8028 27.5327V28.3327C34.184 28.3327 34.576 28.0475 34.576 27.6008H33.776ZM34.1761 27.2008H34.176V28.0008H34.1761V27.2008ZM33.7761 23.7914V27.6008H34.5761V23.7914H33.7761ZM33.8029 23.8595C33.8096 23.8595 33.8078 23.8619 33.8008 23.8557C33.7932 23.8489 33.7761 23.8269 33.7761 23.7914H34.5761C34.5761 23.3445 34.1841 23.0595 33.8029 23.0595V23.8595ZM28.9558 23.8595H33.8029V23.0595H28.9558V23.8595ZM6.28048 23.8595H28.9558V23.0595H6.28048V23.8595ZM2.19719 23.8595H6.28048V23.0595H2.19719V23.8595ZM2.22415 23.7914C2.22415 23.8269 2.20705 23.8488 2.1994 23.8556C2.19243 23.8618 2.19064 23.8595 2.19719 23.8595V23.0595C1.81608 23.0595 1.42415 23.3445 1.42415 23.7914H2.22415ZM2.22415 27.6008V23.7914H1.42415V27.6008H2.22415ZM2.19719 27.5327C2.19071 27.5327 2.1925 27.5304 2.19943 27.5365C2.20702 27.5433 2.22415 27.5652 2.22415 27.6008H1.42415C1.42415 28.0475 1.81599 28.3327 2.19719 28.3327V27.5327ZM3.78939 27.5327H2.19719V28.3327H3.78939V27.5327ZM32.2108 27.5327H3.78939V28.3327H32.2108V27.5327ZM33.8028 27.5327H32.2108V28.3327H33.8028V27.5327Z" fill="#CBC9C6"/>
</svg>
