<svg width="46" height="42" viewBox="0 0 46 42" fill="none" xmlns="http://www.w3.org/2000/svg">
<path fill-rule="evenodd" clip-rule="evenodd" d="M45.9997 23.9924C45.9997 20.7311 43.3629 18.0874 40.1103 18.0874C39.3691 18.0925 38.636 18.2431 37.9526 18.5307V14.9842C37.9526 6.70864 31.2616 0 23.0078 0C14.754 0 8.06302 6.70864 8.06302 14.9842V18.5307C7.37955 18.2431 6.64652 18.0925 5.90532 18.0874C2.96764 18.0797 0.47353 20.2438 0.0593247 23.1598C-0.354881 26.0758 1.43749 28.8519 4.26051 29.6669C3.88191 31.0152 4.06039 32.4595 4.75572 33.6745C5.53762 35.0543 6.99315 35.9124 8.57592 35.9265V38.8524C8.58106 39.621 8.8932 40.3555 9.44254 40.8917C10.1833 41.6171 11.184 42.0134 12.2193 41.9911C14.074 42.1244 15.6939 40.7446 15.8626 38.8879V35.9442H30.2945V38.8524C30.3026 39.6169 30.607 40.3483 31.1434 40.8917C31.8907 41.6182 32.8972 42.0141 33.9378 41.9911C35.7926 42.1244 37.4125 40.7446 37.5811 38.8879V35.9265C39.1459 35.8972 40.5786 35.0407 41.3483 33.6745C42.037 32.4509 42.2151 31.0038 41.8435 29.6491C44.3258 28.8949 46.0172 26.5929 45.9997 23.9924ZM9.77858 14.9132C9.77858 7.56809 15.7173 1.61368 23.0432 1.61368C30.369 1.61368 36.3077 7.56809 36.3077 14.9132V19.5415C36.2277 19.6217 36.155 19.7094 36.0802 19.7998L36.0794 19.8007C36.0388 19.8497 35.9975 19.8995 35.954 19.9493C35.8112 20.0721 35.6809 20.2087 35.5649 20.3572C35.413 20.559 35.277 20.7725 35.1581 20.9956L34.8752 21.4566C34.7675 21.7176 34.673 21.984 34.5922 22.2546C34.5922 22.3351 34.558 22.4099 34.5219 22.4888C34.4945 22.5488 34.466 22.6112 34.4507 22.6802C34.358 23.1054 34.3106 23.5394 34.3092 23.9747L33.2304 23.62C29.9175 22.6085 26.4708 22.1063 23.0078 22.1304C19.5685 22.1135 16.1462 22.6156 12.856 23.62L11.7771 23.9747C11.7721 23.5571 11.7247 23.1412 11.6356 22.7334C11.6356 22.6363 11.5964 22.5523 11.5576 22.4695C11.5327 22.4162 11.508 22.3633 11.4941 22.3078C11.4133 22.0372 11.3188 21.7708 11.2112 21.5098L10.9282 20.9601C10.8135 20.7346 10.6772 20.5208 10.5214 20.3217C10.4473 20.2262 10.3668 20.1433 10.2876 20.0618C10.2345 20.0072 10.1819 19.953 10.1323 19.8961L9.77858 19.506V14.9132ZM5.97606 19.7897C3.6611 19.7897 1.78445 21.6713 1.78445 23.9924C1.76321 26.1381 3.37053 27.9491 5.49854 28.1773H5.99375C7.7132 28.1613 9.25164 27.1026 9.88469 25.4997C9.93623 25.3853 9.97765 25.2666 10.0085 25.145C10.0012 25.104 10.0012 25.0619 10.0085 25.0209C10.1012 24.6859 10.1487 24.34 10.15 23.9924C10.1309 21.6862 8.2761 19.8186 5.97606 19.7897ZM14.1647 38.8879C14.1647 39.6504 13.2627 40.2888 12.2193 40.2888C11.6303 40.3049 11.0587 40.0883 10.6275 39.6859C10.4003 39.476 10.2718 39.1799 10.2738 38.8701V35.9442H14.1647V38.8879ZM33.9024 40.2888C34.9459 40.2888 35.8302 39.6504 35.8302 38.8879L35.6887 35.9442H31.8508V38.8701C31.8817 39.1995 32.0566 39.4983 32.3284 39.6859C32.7551 40.084 33.3196 40.3002 33.9024 40.2888ZM39.845 32.8233C39.3467 33.7034 38.4137 34.2457 37.4043 34.2419H8.66435C7.65496 34.2457 6.72197 33.7034 6.22367 32.8233C5.69608 31.9133 5.59889 30.8154 5.95838 29.8265H6.80731C6.97442 29.8013 7.13982 29.7658 7.30252 29.7201L7.65624 29.6314L8.15145 29.4363L8.4698 29.2945L8.94733 29.0285L9.21262 28.8689C9.37927 28.7547 9.53875 28.6303 9.69015 28.4965L9.90238 28.3369L10.3445 27.8581L10.486 27.6985C10.6299 27.5133 10.7599 27.3177 10.8751 27.1133L10.9812 26.9892C11.1199 26.7609 11.244 26.524 11.3526 26.2799C11.3899 26.2002 11.4195 26.117 11.4411 26.0316C11.5553 25.9891 11.6701 25.946 11.7856 25.9026L11.7871 25.902C12.2972 25.7104 12.8213 25.5134 13.3689 25.3401C19.6606 23.4779 26.355 23.4779 32.6467 25.3401C33.2663 25.5363 33.8559 25.7626 34.4154 25.9774L34.5568 26.0316V26.209C34.6686 26.4834 34.7986 26.75 34.9459 27.0069L35.052 27.1665C35.1715 27.3625 35.3014 27.552 35.4411 27.734L35.6357 27.9468C35.6928 28.0041 35.7471 28.0643 35.8008 28.1238C35.88 28.2117 35.9581 28.2984 36.0425 28.3724L36.2901 28.5674L36.7145 28.9221L37.0152 29.0994C37.076 29.1333 37.1343 29.1698 37.192 29.2059C37.2851 29.2642 37.3767 29.3216 37.475 29.3654L37.8111 29.5073L38.2709 29.7023L38.6423 29.791C38.805 29.8367 38.9704 29.8723 39.1375 29.8974H39.9865C40.3456 30.8552 40.2747 31.9218 39.7919 32.8233H39.845ZM40.2517 28.1596H40.5524L40.5701 28.1773C42.8753 28.0696 44.6569 26.1086 44.5495 23.7973C44.442 21.4861 42.4862 19.6997 40.181 19.8075C37.881 19.8363 36.0261 21.7039 36.0071 24.0101C36.0083 24.3694 36.0559 24.727 36.1486 25.0741C36.1635 25.184 36.1932 25.2914 36.237 25.3933C36.8661 27.0668 38.468 28.1706 40.2517 28.1596Z" fill="#CBC9C6"/>
</svg>
